<?xml version="1.0"?>
<svg xmlns="http://www.w3.org/2000/svg" xmlns:svg="http://www.w3.org/2000/svg" xmlns:xlink="http://www.w3.org/1999/xlink" viewBox="0 0 56 88.9" style="enable-background:new 0 0 56 88.9;" version="1.1" xml:space="preserve">
 <style type="text/css">.st0{fill:#007BFF;}
	.st1{fill:#FFFFFF;}
	.st2{fill:#B3E3FC;}</style>
 <defs>
  <symbol clip-rule="evenodd" fill-rule="evenodd" height="344px" id="svg_7" version="1.1" width="1000px" xmlns="http://www.w3.org/2000/svg" xmlns:xlink="http://www.w3.org/1999/xlink">
   <g>
    <g>
     <path d="m5.5,26.5c48.33,0 96.67,0 145,0c0,16.67 0,33.33 0,50c-16,0 -32,0 -48,0c0,80 0,160 0,240c-16.33,0 -32.67,0 -49,0c0,-80 0,-160 0,-240c-16,0 -32,0 -48,0c0,-16.67 0,-33.33 0,-50z" fill="#fefffe" opacity="0.98"/>
    </g>
    <g>
     <path d="m183.5,26.5c34,-0.17 68,0 102,0.5c11.19,1.52 18.35,7.69 21.5,18.5c0.67,84.33 0.67,168.67 0,253c-1.95,7.61 -6.45,13.11 -13.5,16.5c-38.27,1.65 -76.61,1.98 -115,1c-7.17,-3.17 -12.33,-8.33 -15.5,-15.5c-0.67,-85.67 -0.67,-171.33 0,-257c4.02,-9.2 10.86,-14.87 20.5,-17zm28,50c15.67,0 31.33,0 47,0c0,63.67 0,127.33 0,191c-15.67,0 -31.33,0 -47,0c0,-63.67 0,-127.33 0,-191z" fill="#fefffe" opacity="0.98"/>
    </g>
    <g>
     <path d="m339.5,26.5c34,-0.17 68,0 102,0.5c11.19,1.52 18.35,7.69 21.5,18.5c0.83,18.34 0.67,36.68 -0.5,55c-15.91,7.87 -31.74,15.87 -47.5,24c-0.5,-16 -0.67,-32 -0.5,-48c-15.67,0 -31.33,0 -47,0c-0.33,27.34 0,54.68 1,82c31.33,-15.67 62.67,-31.33 94,-47c1.17,62.33 1.33,124.66 0.5,187c-2.43,8.76 -7.93,14.6 -16.5,17.5c-37.33,0.67 -74.67,0.67 -112,0c-7.17,-3.17 -12.33,-8.33 -15.5,-15.5c-0.67,-19 -0.67,-38 0,-57c15.76,-8.13 31.59,-16.13 47.5,-24c1,15.99 1.33,31.99 1,48c15.67,0 31.33,0 47,0c0.33,-27.34 0,-54.68 -1,-82c-31.33,15.67 -62.67,31.33 -94,47c-1.17,-63 -1.33,-126 -0.5,-189c4.02,-9.2 10.86,-14.87 20.5,-17z" fill="#fefffe" opacity="0.98"/>
    </g>
    <g>
     <path d="m496.5,26.5c34,-0.17 68,0 102,0.5c11.19,1.52 18.35,7.69 21.5,18.5c0.83,18.34 0.67,36.68 -0.5,55c-15.91,7.87 -31.74,15.87 -47.5,24c-0.5,-16 -0.67,-32 -0.5,-48c-15.67,0 -31.33,0 -47,0c-0.33,27.34 0,54.68 1,82c31.33,-15.67 62.67,-31.33 94,-47c1.17,62.33 1.33,124.66 0.5,187c-2.43,8.76 -7.93,14.6 -16.5,17.5c-37.33,0.67 -74.67,0.67 -112,0c-7.17,-3.17 -12.33,-8.33 -15.5,-15.5c-0.67,-19 -0.67,-38 0,-57c15.76,-8.13 31.59,-16.13 47.5,-24c1,15.99 1.33,31.99 1,48c15.67,0 31.33,0 47,0c0.33,-27.34 0,-54.68 -1,-82c-31.33,15.67 -62.67,31.33 -94,47c-1.17,-63 -1.33,-126 -0.5,-189c4.02,-9.2 10.86,-14.87 20.5,-17z" fill="#fefffe" opacity="0.98"/>
    </g>
    <g>
     <path d="m632.5,26.5c16.33,0 32.67,0 49,0c0,96.67 0,193.33 0,290c-16.33,0 -32.67,0 -49,0c0,-96.67 0,-193.33 0,-290z" fill="#fefffe" opacity="0.98"/>
    </g>
    <g>
     <path d="m692.5,26.5c16.33,0 32.67,0 49,0c-0.17,5.01 0,10.01 0.5,15c3.95,-8.28 10.45,-13.12 19.5,-14.5c18,-0.67 36,-0.67 54,0c11.19,1.52 18.35,7.69 21.5,18.5c0.5,90.33 0.67,180.67 0.5,271c-16.33,0 -32.67,0 -49,0c0,-80 0,-160 0,-240c-15.67,0 -31.33,0 -47,0c0,80 0,160 0,240c-16.33,0 -32.67,0 -49,0c0,-96.67 0,-193.33 0,-290z" fill="#fefffe" opacity="0.98"/>
    </g>
    <g>
     <path d="m869.5,26.5c34,-0.17 68,0 102,0.5c11.19,1.52 18.35,7.69 21.5,18.5c0.67,22.33 0.67,44.67 0,67c-15.88,8.27 -31.88,16.27 -48,24c-0.5,-20 -0.67,-40 -0.5,-60c-15.67,0 -31.33,0 -47,0c0,63.67 0,127.33 0,191c15.67,0 31.33,0 47,0c0.33,-23.34 0,-46.68 -1,-70c-11.33,5.67 -22.67,11.33 -34,17c-1.17,-16.32 -1.33,-32.66 -0.5,-49c27.76,-14.13 55.59,-28.13 83.5,-42c1,64.33 1.33,128.66 1,193c-43,0.17 -86,0 -129,-0.5c-7.17,-3.17 -12.33,-8.33 -15.5,-15.5c-0.67,-85.67 -0.67,-171.33 0,-257c4.02,-9.2 10.86,-14.87 20.5,-17z" fill="#fefffe" opacity="0.98"/>
    </g>
   </g>
  </symbol>
 </defs>
 <g class="layer">
  <path class="st0" d="m3.5,2.1l49,0c0.7,0 1.4,0.6 1.4,1.3l0,82c0,0.8 -0.6,1.3 -1.4,1.3l-49,0c-0.7,0 -1.4,-0.6 -1.4,-1.3l0,-82c0,-0.7 0.7,-1.3 1.4,-1.3z" id="svg_1" stroke-width="0B3E3FC"/>
  <circle class="st1" cx="51.8" cy="4.2" id="svg_2" r="0.8"/>
  <circle class="st1" cx="4.2" cy="4.2" id="svg_3" r="0.8"/>
  <g id="svg_4">
   <circle class="st1" cx="51.8" cy="84.7" id="svg_5" r="0.8"/>
   <circle class="st1" cx="4.2" cy="84.7" id="svg_6" r="0.8"/>
  </g>
  <title>back</title>
  <g id="svg_13" transform="matrix(1 0 0 1 0 0)">
   <path class="st2" d="m15.3,47.1l0.4,-0.5l-0.1,-0.1c-0.4,-0.9 -0.4,-2 0,-2.9l11.6,-25.6c0.1,-0.3 0.5,-0.5 0.8,-0.5l0,0c0.4,0 0.7,0.2 0.8,0.5l4.2,9.4l0.6,-0.2l-4.2,-9.4c-0.2,-0.5 -0.8,-0.9 -1.4,-0.9c0,0 0,0 0,0c-0.6,0 -1.1,0.3 -1.4,0.9l-11.5,25.6c-0.5,1.1 -0.5,2.3 0,3.4l0.2,0.3z" fill="#b3e3fc" id="svg_14"/>
   <path class="st2" d="m40,41.3l-0.5,0.4l0.8,1.8c0.4,0.9 0.4,2 0,2.9l-11.5,25.7c-0.1,0.3 -0.5,0.5 -0.8,0.5l0,0c-0.4,0 -0.7,-0.2 -0.8,-0.5l-2,-4.4l-0.6,0.2l2,4.5c0.2,0.5 0.8,0.9 1.4,0.9c0,0 0,0 0,0c0.6,0 1.1,-0.3 1.4,-0.9l11.5,-25.6c0.5,-1.1 0.5,-2.3 0,-3.4l-0.9,-2.1z" fill="#b3e3fc" id="svg_15"/>
  </g>
  <line fill="none" id="svg_16" stroke="#b3e3fc" stroke-width="0.63" x1="15.39" x2="25.24" y1="46.75" y2="68.54"/>
  <line fill="none" id="svg_17" stroke="#b3e3fc" stroke-width="0.63" x1="30.72" x2="40.56" y1="21.48" y2="43.27"/>
  <rect fill="#007bff" height="12.92" id="svg_24" transform="matrix(1 0 0 1 0 0) matrix(0.643549 -0.765405 0.765405 0.643549 -26.3395 39.7484)" width="40.06" x="10.27" y="39.4"/>
  <use fill="#007bff" fill-opacity="0.8" id="svg_8" stroke-width="0" transform="rotate(1.30166 28.1591 46.0739) matrix(0.0244613 -0.0301193 0.0301193 0.0244613 -28.4821 155.257)" x="2605.03" xlink:href="#svg_7" y="-812.32"/>
 </g>
</svg>